<svg width="24" height="24" viewBox="0 0 24 24" fill="none" xmlns="http://www.w3.org/2000/svg">
<path d="M6 2.75C4.61929 2.75 3.5 3.58947 3.5 4.625C3.5 5.66053 4.61929 6.5 6 6.5C7.38071 6.5 8.5 7.33947 8.5 8.375C8.5 9.41053 7.38071 10.25 6 10.25M6 2.75C7.08852 2.75 8.01455 3.27175 8.35775 4M6 2.75V1.5M6 10.25C4.91148 10.25 3.98545 9.7282 3.64225 9M6 10.25V11.5" stroke="#1A2B49" stroke-width="1.5" stroke-linecap="round"/>
<path d="M15 17.5L18 13L21 17.5M15 17.5L18 22L21 17.5M15 17.5L18 18.625L21 17.5" stroke="#1A2B49" stroke-width="1.5" stroke-linecap="round" stroke-linejoin="round"/>
<path d="M12 5C14.8284 5 17.2426 5 18.1213 5.7988C19 6.5976 19 7.4287 19 10L17 9" stroke="#1A2B49" stroke-width="1.5" stroke-linecap="round" stroke-linejoin="round"/>
<path d="M12 19C9.17157 19 6.75736 19 5.87868 18.2012C5 17.4024 5 16.5713 5 14L7 15" stroke="#1A2B49" stroke-width="1.5" stroke-linecap="round" stroke-linejoin="round"/>
</svg>
