<svg width="97" height="32" viewBox="0 0 97 32" fill="none" xmlns="http://www.w3.org/2000/svg">
<g clip-path="url(#clip0_68_2050)">
<path d="M15.0454 9.39546C15.0454 4.20652 19.2519 6.10352e-05 24.4408 6.10352e-05H73.2273L27.9302 18.1189C21.7587 20.5875 15.0454 16.0424 15.0454 9.39546Z" fill="#2F80ED"/>
<path d="M58.6818 22.6047C58.6818 27.7936 54.4753 32.0001 49.2863 32.0001H0.5L45.7972 13.8813C51.9685 11.4127 58.6818 15.9578 58.6818 22.6047Z" fill="#2F80ED"/>
<path d="M63.412 31.9999L60.6018 24.1803H63.0455L64.4593 28.6137L64.9131 30.1672H65.0877L65.3495 28.7883L66.5538 24.1803H69.3466L70.6207 28.7883L70.8651 30.1672H71.0397L71.5109 28.5788L72.8375 24.1803H75.2811L75.0018 25.245L72.4884 31.9999H69.6957L68.2469 27.1999L68.0724 26.3795H67.8978L67.6884 27.1999L66.2047 31.9999H63.412ZM77.748 23.0806C77.3175 23.0806 77.0033 22.9934 76.8055 22.8188C76.6077 22.6443 76.5087 22.3534 76.5087 21.9461C76.5087 21.5272 76.6018 21.2363 76.788 21.0734C76.9858 20.8988 77.3058 20.8115 77.748 20.8115C78.1902 20.8115 78.5102 20.8988 78.708 21.0734C78.9058 21.2363 79.0047 21.5272 79.0047 21.9461C79.0047 22.3417 78.9058 22.6326 78.708 22.8188C78.5102 22.9934 78.1902 23.0806 77.748 23.0806ZM76.6833 31.9999V24.1803H78.8127V31.9999H76.6833ZM81.4778 31.9999V25.6814H80.3956V24.1977H81.4778V22.6443C81.4778 22.2486 81.5534 21.8821 81.7047 21.5446C81.8676 21.2072 82.1294 20.9337 82.4901 20.7243C82.8625 20.5148 83.3512 20.4101 83.9563 20.4101H84.829C86.2254 20.4101 87.2261 20.4741 87.8312 20.6021C88.4479 20.7301 88.7563 20.8406 88.7563 20.9337L88.2327 22.2603C88.0349 22.1788 87.6799 22.1032 87.1679 22.0334C86.6559 21.9519 86.0392 21.9112 85.3178 21.9112H84.445C84.1541 21.9112 83.9389 21.9635 83.7992 22.0683C83.6712 22.173 83.6072 22.3534 83.6072 22.6094V24.1977H87.2378V25.6814H83.6072V31.9999H81.4778ZM92.4831 31.9999C91.5988 31.9999 90.9937 31.8137 90.6679 31.4414C90.3421 31.069 90.1791 30.5105 90.1791 29.7657V25.6814H88.7479V24.1803H89.481C89.7021 24.1803 89.8591 24.1454 89.9522 24.0755C90.057 24.0057 90.1326 23.8661 90.1791 23.6566L90.5282 21.789H92.3086V24.1803H95.9391V25.6814H92.3086V29.7832C92.3086 30.0741 92.3784 30.2661 92.5181 30.3592C92.6577 30.4523 92.8671 30.4988 93.1464 30.4988H95.6075L95.7821 31.8254C95.5377 31.8603 95.1653 31.901 94.665 31.9475C94.1646 31.9825 93.6177 31.9999 93.0242 31.9999H92.4831Z" fill="#333333"/>
</g>
<defs>
<clipPath id="clip0_68_2050">
<rect width="96" height="32" fill="white" transform="translate(0.5)"/>
</clipPath>
</defs>
</svg>
