<svg xmlns="http://www.w3.org/2000/svg" xmlns:xlink="http://www.w3.org/1999/xlink" width="500" zoomAndPan="magnify" viewBox="0 0 375 374.999991" height="500" preserveAspectRatio="xMidYMid meet" version="1.0"><defs><g/><clipPath id="1a99c629c3"><path d="M 0.359375 49 L 82 49 L 82 131 L 0.359375 131 Z M 0.359375 49 " clip-rule="nonzero"/></clipPath><clipPath id="f35e84952d"><rect x="0" width="282" y="0" height="180"/></clipPath></defs><g transform="matrix(1, 0, 0, 1, 45, 97)"><g clip-path="url(#f35e84952d)"><g clip-path="url(#1a99c629c3)"><g fill="#ffffff" fill-opacity="1"><g transform="translate(0.538749, 128.806282)"><g><path d="M 40.34375 1.359375 C 36.582031 1.359375 33.25 0.492188 30.34375 -1.234375 C 27.445312 -2.972656 25.359375 -5.613281 24.078125 -9.15625 L 0 -79.109375 L 20.453125 -79.109375 L 38.765625 -17.859375 C 38.910156 -17.398438 39.113281 -17.054688 39.375 -16.828125 C 39.644531 -16.609375 39.96875 -16.5 40.34375 -16.5 C 40.71875 -16.5 41.035156 -16.59375 41.296875 -16.78125 C 41.566406 -16.96875 41.773438 -17.328125 41.921875 -17.859375 L 60.578125 -79.109375 L 80.578125 -79.109375 L 56.625 -9.15625 C 55.414062 -5.757812 53.34375 -3.15625 50.40625 -1.34375 C 47.46875 0.457031 44.113281 1.359375 40.34375 1.359375 Z M 40.34375 1.359375 "/></g></g></g></g><g fill="#ffffff" fill-opacity="1"><g transform="translate(71.844314, 128.806282)"><g><path d="M 28.03125 0 C 23.582031 0 19.550781 -1.035156 15.9375 -3.109375 C 12.320312 -5.179688 9.4375 -7.96875 7.28125 -11.46875 C 5.132812 -14.96875 4.0625 -18.941406 4.0625 -23.390625 C 4.0625 -26.703125 4.796875 -29.804688 6.265625 -32.703125 C 7.734375 -35.609375 9.710938 -38.117188 12.203125 -40.234375 C 9.796875 -42.265625 7.894531 -44.671875 6.5 -47.453125 C 5.101562 -50.242188 4.40625 -53.1875 4.40625 -56.28125 C 4.40625 -60.65625 5.457031 -64.554688 7.5625 -67.984375 C 9.675781 -71.410156 12.503906 -74.117188 16.046875 -76.109375 C 19.585938 -78.109375 23.503906 -79.109375 27.796875 -79.109375 L 61.140625 -79.109375 L 61.140625 -63.28125 L 30.734375 -63.28125 C 29.304688 -63.28125 27.988281 -62.941406 26.78125 -62.265625 C 25.570312 -61.585938 24.609375 -60.679688 23.890625 -59.546875 C 23.179688 -58.421875 22.828125 -57.109375 22.828125 -55.609375 C 22.828125 -54.171875 23.179688 -52.867188 23.890625 -51.703125 C 24.609375 -50.535156 25.570312 -49.628906 26.78125 -48.984375 C 27.988281 -48.347656 29.304688 -48.03125 30.734375 -48.03125 L 57.296875 -48.03125 L 57.296875 -32.203125 L 31.3125 -32.203125 C 29.726562 -32.203125 28.296875 -31.828125 27.015625 -31.078125 C 25.734375 -30.328125 24.710938 -29.347656 23.953125 -28.140625 C 23.203125 -26.929688 22.828125 -25.535156 22.828125 -23.953125 C 22.828125 -22.453125 23.203125 -21.078125 23.953125 -19.828125 C 24.710938 -18.585938 25.734375 -17.628906 27.015625 -16.953125 C 28.296875 -16.273438 29.726562 -15.9375 31.3125 -15.9375 L 61.140625 -15.9375 L 61.140625 0 Z M 28.03125 0 "/></g></g></g><g fill="#ffffff" fill-opacity="1"><g transform="translate(128.119977, 128.806282)"><g><path d="M 30.40625 0 C 25.507812 0 21.210938 -1.09375 17.515625 -3.28125 C 13.828125 -5.46875 10.960938 -8.367188 8.921875 -11.984375 C 6.890625 -15.597656 5.875 -19.585938 5.875 -23.953125 L 5.875 -79.109375 L 24.859375 -79.109375 L 24.859375 -22.609375 C 24.859375 -20.796875 25.5 -19.210938 26.78125 -17.859375 C 28.0625 -16.503906 29.644531 -15.828125 31.53125 -15.828125 L 52.4375 -15.828125 L 52.4375 0 Z M 30.40625 0 "/></g></g></g><g fill="#ffffff" fill-opacity="1"><g transform="translate(173.433981, 128.806282)"><g><path d="M 45.203125 1.46875 C 38.878906 1.46875 33.15625 0.414062 28.03125 -1.6875 C 22.90625 -3.800781 18.492188 -6.738281 14.796875 -10.5 C 11.109375 -14.269531 8.265625 -18.640625 6.265625 -23.609375 C 4.273438 -28.585938 3.28125 -33.941406 3.28125 -39.671875 C 3.28125 -45.390625 4.273438 -50.734375 6.265625 -55.703125 C 8.265625 -60.679688 11.09375 -65.035156 14.75 -68.765625 C 18.40625 -72.492188 22.8125 -75.394531 27.96875 -77.46875 C 33.132812 -79.539062 38.878906 -80.578125 45.203125 -80.578125 C 51.460938 -80.578125 57.171875 -79.539062 62.328125 -77.46875 C 67.484375 -75.394531 71.890625 -72.492188 75.546875 -68.765625 C 79.203125 -65.035156 82.046875 -60.664062 84.078125 -55.65625 C 86.117188 -50.644531 87.140625 -45.316406 87.140625 -39.671875 C 87.140625 -33.941406 86.117188 -28.585938 84.078125 -23.609375 C 82.046875 -18.640625 79.203125 -14.269531 75.546875 -10.5 C 71.890625 -6.738281 67.484375 -3.800781 62.328125 -1.6875 C 57.171875 0.414062 51.460938 1.46875 45.203125 1.46875 Z M 45.203125 -14.6875 C 48.515625 -14.6875 51.582031 -15.304688 54.40625 -16.546875 C 57.238281 -17.796875 59.671875 -19.550781 61.703125 -21.8125 C 63.742188 -24.070312 65.328125 -26.726562 66.453125 -29.78125 C 67.585938 -32.832031 68.15625 -36.128906 68.15625 -39.671875 C 68.15625 -43.210938 67.585938 -46.488281 66.453125 -49.5 C 65.328125 -52.507812 63.742188 -55.144531 61.703125 -57.40625 C 59.671875 -59.664062 57.238281 -61.414062 54.40625 -62.65625 C 51.582031 -63.90625 48.515625 -64.53125 45.203125 -64.53125 C 41.816406 -64.53125 38.726562 -63.90625 35.9375 -62.65625 C 33.144531 -61.414062 30.710938 -59.664062 28.640625 -57.40625 C 26.578125 -55.144531 25 -52.488281 23.90625 -49.4375 C 22.8125 -46.394531 22.265625 -43.140625 22.265625 -39.671875 C 22.265625 -36.128906 22.8125 -32.832031 23.90625 -29.78125 C 25 -26.726562 26.578125 -24.070312 28.640625 -21.8125 C 30.710938 -19.550781 33.144531 -17.796875 35.9375 -16.546875 C 38.726562 -15.304688 41.816406 -14.6875 45.203125 -14.6875 Z M 45.203125 -14.6875 "/></g></g></g><g fill="#ffffff" fill-opacity="1"><g transform="translate(254.458125, 128.806282)"><g><path d="M 15.140625 1.359375 C 12.128906 1.359375 9.550781 0.285156 7.40625 -1.859375 C 5.257812 -4.003906 4.1875 -6.550781 4.1875 -9.5 C 4.1875 -12.507812 5.257812 -15.085938 7.40625 -17.234375 C 9.550781 -19.378906 12.128906 -20.453125 15.140625 -20.453125 C 18.078125 -20.453125 20.617188 -19.378906 22.765625 -17.234375 C 24.921875 -15.085938 26 -12.507812 26 -9.5 C 26 -7.539062 25.507812 -5.726562 24.53125 -4.0625 C 23.550781 -2.40625 22.25 -1.085938 20.625 -0.109375 C 19.007812 0.867188 17.179688 1.359375 15.140625 1.359375 Z M 15.140625 1.359375 "/></g></g></g></g></g></svg>